<svg width="27" height="36" viewBox="0 0 27 36" fill="none" xmlns="http://www.w3.org/2000/svg">
<path d="M13.9711 36.0001C16.4157 32.9477 26.965 19.4063 26.965 12.9938C26.965 5.81739 21.1472 0 13.9711 0C6.79472 0 0.977325 5.81739 0.977325 12.9938C0.977325 19.4076 11.5262 32.9483 13.9711 36.0001ZM5.12894 10.5321L13.5749 4.03519C13.8084 3.85532 14.1339 3.85532 14.3674 4.03519L22.8133 10.5321C23.0319 10.7024 23.1185 10.9924 23.0291 11.2544C22.9399 11.5165 22.6941 11.6932 22.4171 11.6944H20.468V18.841C20.468 19.1998 20.1771 19.4907 19.8184 19.4907H8.12392C7.76513 19.4907 7.47423 19.1998 7.47423 18.841V11.6944H5.52516C5.24726 11.6944 5.00014 11.5174 4.91036 11.2541C4.82091 10.9908 4.90878 10.6999 5.12894 10.5302V10.5321Z" fill="#8A8C90"/>
</svg>
